<svg width="1000" height="360" viewBox="0 0 1000 360" fill="none" xmlns="http://www.w3.org/2000/svg">
<path fill-rule="evenodd" clip-rule="evenodd" d="M556.205 0.940978C538.412 2.82098 526.392 7.82198 516.949 17.275C506.451 27.784 501.942 41.172 504.402 54.526C506.134 63.923 509.089 69.513 516.01 76.484C525.586 86.129 538.712 91.951 566.507 98.885C582.369 102.842 587.636 105.132 592.01 109.972C595.005 113.287 595.518 114.565 595.518 118.705C595.518 124.838 592.569 129.446 586.479 132.827C582.789 134.876 580.636 135.308 574.018 135.327C567.269 135.346 565.135 134.916 560.368 132.575C552.384 128.654 547.725 121.956 546.038 111.97C545.36 107.955 545.211 107.813 542.175 108.285C540.439 108.554 529.793 109.295 518.518 109.931C507.243 110.567 497.858 111.232 497.662 111.408C497.466 111.585 498.017 115.244 498.886 119.54C502.056 135.201 512.137 150.667 523.661 157.549C539.97 167.288 576.95 170.512 601.12 164.302C622.256 158.872 637.878 143.923 643.01 124.219C645.945 112.952 644.339 99.805 638.783 89.595C635.218 83.046 625.85 74.544 617.673 70.437C609.015 66.09 592.92 60.999 573.19 56.367C559.951 53.259 556.801 52.16 553.94 49.647C551.183 47.227 550.518 45.912 550.518 42.881C550.518 38.529 553.204 34.581 557.772 32.219C562.579 29.733 574.3 30.082 580.086 32.883C585.213 35.365 590.037 41.768 591.117 47.527C591.666 50.45 592.118 50.851 594.879 50.859C602.455 50.881 638.078 48.529 638.644 47.969C639.803 46.823 636.689 34.993 633.432 28.17C623.086 6.49098 595.556 -3.21502 556.205 0.940978ZM11.5178 83.779V164.85H36.5178H61.5178V131.85V98.85L64.7678 98.856C70.9818 98.866 75.9058 100.941 80.0178 105.281C82.5308 107.934 89.5368 119.788 98.8688 137.177L113.72 164.85H141.619C156.963 164.85 169.518 164.48 169.518 164.028C169.518 162.862 145.71 116.971 143.227 113.35C137.118 104.444 131.92 99.465 125.679 96.545L119.247 93.535L126.092 91.073C134.609 88.009 139.544 84.929 145.111 79.201C164.632 59.115 159.447 21.476 135.487 9.33397C124.635 3.83497 121.518 3.56297 64.2678 3.11897L11.5178 2.70897V83.779ZM99.3118 38.175C108.601 43.172 109.081 58.504 100.131 64.368C96.5118 66.739 83.5298 68.775 71.7678 68.815L61.5178 68.85V52.251V35.652L78.7678 36.028C92.8698 36.335 96.6188 36.727 99.3118 38.175ZM59.2328 192.901C35.4398 195.372 19.2108 204.39 11.2308 219.576C2.44977 236.286 4.50876 254.019 16.7888 267.456C25.6618 277.164 40.4818 284.07 66.0178 290.394C84.0838 294.868 89.9828 297.337 94.2698 302.22C99.7628 308.476 98.4358 317.764 91.2688 323.223C81.2348 330.867 61.4468 328.179 53.7838 318.132C52.4118 316.333 50.2908 311.597 49.0698 307.606C47.0698 301.068 46.6117 300.371 44.4337 300.565C43.1047 300.683 32.7928 301.293 21.5178 301.92C10.2428 302.547 0.707772 303.35 0.329772 303.705C-1.15523 305.098 2.63275 319.661 6.54175 327.59C17.9167 350.66 35.8358 359.114 73.5178 359.189C97.2458 359.237 109.25 356.561 122.055 348.37C149.699 330.686 154.88 292.214 132.418 271.418C122.376 262.121 106.117 255.525 77.0178 248.942C61.3328 245.395 58.8208 244.488 55.2678 241.099C49.7728 235.857 52.9438 226.515 61.1338 223.812C66.0828 222.178 78.1548 223.015 82.9028 225.32C87.2748 227.443 92.1237 234.231 93.1407 239.654L93.7888 243.106L108.903 242.381C117.216 241.982 127.843 241.362 132.518 241.003L141.018 240.35L140.671 236.89C138.976 220.016 126.664 203.79 111.15 197.985C98.4738 193.243 76.5858 191.099 59.2328 192.901ZM249.385 192.925C222.504 195.775 201.841 208.756 190.594 229.859C183.254 243.63 179.501 267.119 181.48 286.907C183.762 309.737 190.325 324.566 204.518 338.964C214.53 349.121 222.829 353.643 237.671 357.029C251.092 360.09 278.469 360.083 289.818 357.015C308.594 351.939 322.689 340.522 330.846 323.783C333.374 318.595 336.107 311.998 336.919 309.124L338.396 303.898L328.207 300.792C322.603 299.084 313.036 296.148 306.946 294.268C300.856 292.388 295.606 290.85 295.278 290.85C294.949 290.85 293.74 293.663 292.59 297.1C286.642 314.882 278.041 321.85 262.037 321.85C254.177 321.85 247.849 319.681 242.6 315.188C234.427 308.192 231.554 298.095 231.55 276.35C231.546 255.934 234.131 246.648 242.096 238.464C249.541 230.815 262.87 227.813 273.584 231.372C280.59 233.699 287.707 240.353 290.565 247.251L292.74 252.498L314.295 247.675C326.15 245.022 336.005 242.697 336.194 242.507C336.384 242.317 335.87 240.265 335.052 237.947C329.398 221.923 316.784 206.947 303.518 200.51C294.495 196.131 287.171 194.204 274.518 192.879C263.837 191.761 260.305 191.767 249.385 192.925ZM633.205 192.941C597.617 196.7 573.631 216.997 565.363 250.35C563.5 257.867 563.137 262.07 563.161 275.85C563.2 298.192 565.917 309.711 574.663 324.629C579.354 332.628 591.686 344.781 599.518 349.123C623.048 362.167 666.268 363.091 690.103 351.06C701.722 345.194 712.472 335.508 718.287 325.663L719.897 322.939L723.374 328.144C736.223 347.38 756.98 357.575 787.018 359.404C825.96 361.775 855.877 346.5 869.053 317.519L871.403 312.35L871.46 334.6L871.518 356.85H935.518H999.518V336.85V316.85H960.518H921.518V255.85V194.85H896.518H871.518L871.509 217.1L871.5 239.35L868.003 232.345C856.139 208.576 835.59 195.929 803.768 192.809C769.369 189.437 740.793 200.262 723.973 223.037L719.773 228.724L716.664 223.925C711.148 215.412 700.543 206.386 690.278 201.466C679.66 196.377 671.972 194.3 658.518 192.884C647.813 191.758 644.334 191.766 633.205 192.941ZM376.518 275.85V356.85H401.518H426.518V324.35V291.85H454.018H481.518V324.35V356.85H506.518H531.518V275.85V194.85H506.518H481.518V223.366V251.882L454.268 251.616L427.018 251.35L426.752 223.1L426.487 194.85H401.502H376.518V275.85ZM653.719 230.972C660.385 232.383 663.593 234.019 668.655 238.593C676.948 246.085 680.046 256.336 679.916 275.85C679.775 296.885 676.632 307.059 667.897 314.748C661.661 320.237 654.825 322.222 644.097 321.659C637.548 321.315 634.967 320.675 630.647 318.324C619.975 312.515 615.232 303.762 613.277 286.267C611.905 273.987 613.28 259.234 616.631 250.277C622.251 235.256 637.199 227.475 653.719 230.972ZM808.206 233.905C822.129 240.676 827.334 254.057 826.245 280.284C825.341 302.07 820.676 312.391 809.046 318.34C801.607 322.144 790.833 322.956 781.97 320.379C773.558 317.933 765.729 309.906 762.43 300.342C760.249 294.021 760.018 291.719 760.018 276.35C760.018 257.498 761.078 252.063 766.385 243.712C774.591 230.797 792.957 226.49 808.206 233.905Z" fill="white"/>
</svg>
