<svg width="16" height="16" viewBox="0 0 16 16" fill="none" xmlns="http://www.w3.org/2000/svg">
<path d="M13.901 2.599C12.8124 1.40974 11.3898 0.577157 9.81978 0.210406C8.24977 -0.156345 6.60557 -0.0401537 5.10273 0.543748C3.5999 1.12765 2.30856 2.15201 1.39799 3.48255C0.487428 4.81309 0.000138011 6.38771 0 8H1.5C1.50017 6.6844 1.89954 5.39982 2.64534 4.31603C3.39115 3.23225 4.44826 2.40029 5.67697 1.93011C6.90568 1.45993 8.24815 1.37366 9.52693 1.68271C10.8057 1.99176 11.9606 2.68158 12.839 3.661L10.5 6H16V0.499996L13.901 2.599ZM14.5 8C14.4998 9.3156 14.1005 10.6002 13.3547 11.684C12.6089 12.7677 11.5517 13.5997 10.323 14.0699C9.09432 14.5401 7.75185 14.6263 6.47307 14.3173C5.19428 14.0082 4.03938 13.3184 3.161 12.339L5.5 10H0V15.5L2.099 13.401C3.18763 14.5903 4.6102 15.4228 6.18022 15.7896C7.75023 16.1563 9.39443 16.0401 10.8973 15.4562C12.4001 14.8723 13.6914 13.848 14.602 12.5174C15.5126 11.1869 15.9999 9.61228 16 8H14.5Z" fill="white"/>
</svg>
